<svg version="1.1" xmlns="http://www.w3.org/2000/svg" xmlns:xlink="http://www.w3.org/1999/xlink" x="0px" y="0px" viewBox="0 0 390 86" xml:space="preserve" class="md:w-30-1 w-8-7 logo" fill-rule="evenodd" clip-rule="evenodd" fill="#ffffff"><path d="M375.58,36.31c0-0.69-0.19-1.28-0.57-1.79c-0.38-0.5-0.88-0.75-1.5-0.75h-1.27v-1.26h1.34
	c0.59,0,1.04-0.18,1.35-0.53c0.31-0.35,0.46-0.8,0.46-1.35c0-0.54-0.27-1.01-0.83-1.4c-0.55-0.4-1.15-0.59-1.8-0.59v-1.31
	c1.07,0,2.04,0.33,2.93,0.98c0.88,0.65,1.32,1.44,1.33,2.36c0,0.58-0.13,1.05-0.38,1.43c-0.26,0.38-0.73,0.71-1.4,1.01
	c0.79,0.39,1.31,0.86,1.58,1.4c0.27,0.54,0.4,1.05,0.4,1.53v1.23c0,0.59-0.15,1.23-0.45,1.9c-0.31,0.67-0.78,1.19-1.43,1.55
	c-0.64,0.35-1.38,0.53-2.21,0.53c-0.84,0-1.59-0.18-2.23-0.53c-0.65-0.36-1.12-0.85-1.42-1.46c-0.3-0.61-0.45-1.32-0.45-2.11
	c0-0.73,0.23-1.54,0.69-2.43l1.48,0.73c-0.36,0.59-0.54,1.32-0.54,2.19c0,0.64,0.25,1.18,0.76,1.62c0.5,0.45,1.07,0.67,1.7,0.67
	c0.61,0,1.12-0.15,1.53-0.45c0.4-0.3,0.66-0.64,0.77-1.05c0.11-0.41,0.16-0.77,0.16-1.08V36.31z M363.33,35.85
	c0.62,0,1.19-0.27,1.7-0.81c0.51-0.54,0.76-1.45,0.76-2.72c0-1.23-0.25-2.11-0.75-2.65c-0.5-0.54-1.07-0.81-1.71-0.81
	c-0.64,0-1.23,0.27-1.75,0.81c-0.52,0.54-0.79,1.43-0.79,2.65c0,1.28,0.27,2.18,0.8,2.72S362.71,35.85,363.33,35.85z M366.47,23.22
	v1.34h-4.07c-0.63,0-1.06,0.11-1.28,0.33c-0.22,0.22-0.33,0.61-0.33,1.18v2.74c0.83-0.85,1.68-1.27,2.55-1.27
	c0.87,0,1.61,0.19,2.22,0.58c0.62,0.38,1.08,0.93,1.39,1.63c0.31,0.7,0.47,1.55,0.47,2.54c0,1.05-0.17,1.94-0.52,2.66
	c-0.35,0.72-0.85,1.27-1.51,1.66c-0.66,0.38-1.34,0.57-2.05,0.57c-0.72,0-1.41-0.19-2.07-0.57c-0.66-0.39-1.16-0.94-1.51-1.66
	c-0.34-0.72-0.52-1.6-0.52-2.66v-6.22c0-1.01,0.28-1.73,0.85-2.18c0.56-0.45,1.46-0.67,2.7-0.67H366.47z M357.2,33.11
	c-0.01,1.01-0.38,1.93-1.11,2.79c-0.73,0.86-1.74,1.28-3.02,1.28c-1.17,0-2.14-0.43-2.91-1.28c-0.78-0.86-1.16-1.87-1.16-3.05
	c0-0.88,0.3-1.78,0.89-2.7l1.42,0.66c-0.44,0.87-0.66,1.55-0.66,2.04c0,1.08,0.26,1.85,0.77,2.32c0.51,0.46,1.06,0.7,1.66,0.71
	c0.58-0.01,1.11-0.2,1.58-0.57c0.47-0.38,0.77-1.11,0.88-2.19c0-1.46-0.66-2.63-2.01-3.52c-1.34-0.89-2.01-1.97-2.01-3.21h1.56
	c0.01,0.99,0.7,1.95,2.06,2.87C356.52,30.17,357.2,31.45,357.2,33.11z M343.14,35.85c0.62,0,1.18-0.27,1.69-0.81
	s0.77-1.46,0.77-2.77c0-1.2-0.25-2.07-0.75-2.61c-0.5-0.54-1.07-0.81-1.71-0.81c-0.65,0-1.22,0.27-1.71,0.81s-0.75,1.41-0.75,2.61
	c0,1.31,0.25,2.23,0.76,2.77C341.95,35.58,342.51,35.85,343.14,35.85z M343.14,37.17c-0.72,0-1.41-0.19-2.07-0.57
	c-0.66-0.39-1.16-0.94-1.51-1.66c-0.35-0.72-0.52-1.62-0.52-2.7c0-0.96,0.16-1.79,0.47-2.49c0.32-0.7,0.75-1.23,1.29-1.57
	c0.55-0.34,1.14-0.55,1.77-0.62l0.14-1.03c0.09-0.43-0.21-0.85-0.91-1.28c-0.7-0.42-1.05-1.12-1.05-2.12h1.75
	c-0.01,0.51,0.27,1,0.86,1.46c0.59,0.46,0.84,1.05,0.78,1.75l-0.23,1.25c0.54,0.09,1.07,0.29,1.59,0.61
	c0.52,0.32,0.93,0.84,1.25,1.54c0.31,0.7,0.47,1.54,0.47,2.49c0,1.09-0.17,1.98-0.52,2.7c-0.35,0.72-0.85,1.27-1.51,1.66
	C344.54,36.98,343.85,37.17,343.14,37.17z M328.1,36.96c1.17-1.88,1.76-3.56,1.76-5.06c0-1.02-0.25-1.83-0.74-2.42
	c-0.5-0.59-1.07-0.88-1.71-0.88c-0.65,0-1.22,0.29-1.72,0.88c-0.49,0.59-0.74,1.39-0.74,2.42c0,1.5,0.61,3.18,1.84,5.06h-1.84
	c-1.09-2.17-1.63-3.85-1.63-5.05c0-0.72,0.16-1.46,0.47-2.21c0.31-0.75,0.78-1.34,1.39-1.75c0.62-0.42,1.36-0.63,2.23-0.63
	s1.61,0.21,2.23,0.63c0.61,0.42,1.08,1,1.39,1.75c0.31,0.75,0.47,1.5,0.47,2.21c0,1.2-0.55,2.88-1.63,5.05H328.1z M305.2,38.04
	c0.7-0.13,1.44-0.21,2.22-0.23c-2.22-1.79-3.33-3.79-3.33-5.99c0-0.78,0.16-1.52,0.47-2.21c0.31-0.7,0.78-1.25,1.39-1.67
	c0.62-0.41,1.3-0.62,2.05-0.62c1.06,0,1.88,0.45,2.46,1.35c0.57-0.96,1.34-1.44,2.3-1.44c1.02,0,1.82,0.48,2.4,1.44
	c0.48-0.9,1.31-1.35,2.46-1.35c0.75,0,1.43,0.21,2.05,0.62c0.61,0.42,1.08,0.96,1.39,1.62c0.32,0.67,0.47,1.42,0.47,2.26
	c0,1.32-0.66,2.72-1.99,4.2h-2.38c1.82-1.37,2.73-2.77,2.73-4.21c0-1.14-0.25-1.97-0.74-2.48s-1-0.76-1.54-0.76
	c-1.13,0-1.7,0.76-1.7,2.27v2.47h-1.63v-2.47c0-1.57-0.51-2.36-1.54-2.36c-1.02,0-1.54,0.79-1.54,2.36v2.47h-1.63v-2.47
	c0-1.51-0.53-2.27-1.59-2.27c-0.53,0-1.04,0.27-1.54,0.81c-0.49,0.54-0.74,1.35-0.74,2.43c0.01,2.14,1.38,4.04,4.1,5.71
	c2.27,0.11,4.1,0.54,5.48,1.29c1.38,0.75,2.14,1.53,2.26,2.34h-2.12c-0.05-0.63-0.6-1.16-1.64-1.58c-1.04-0.42-2.21-0.63-3.51-0.63
	c-1.66,0-3.36,0.2-5.11,0.6V38.04z M302.23,36.14c0,1.46-0.15,2.5-0.45,3.11c-0.3,0.61-0.77,1.09-1.42,1.45
	c-0.65,0.36-1.38,0.54-2.21,0.54c-0.84-0.01-1.58-0.18-2.23-0.54c-0.64-0.36-1.12-0.84-1.42-1.45c-0.3-0.61-0.45-1.32-0.45-2.12
	c0-0.78,0.34-1.67,1.02-2.65l1.36,0.75c-0.5,0.72-0.75,1.52-0.75,2.39c0,0.64,0.25,1.2,0.76,1.66c0.51,0.46,1.08,0.69,1.7,0.69
	c0.62,0,1.14-0.16,1.57-0.47c0.43-0.31,0.7-0.68,0.81-1.11c0.11-0.43,0.16-1.16,0.16-2.21v-6.32c0-0.5-0.12-0.83-0.38-1.01
	c-0.25-0.18-0.52-0.27-0.79-0.27c-0.28,0-0.54,0.09-0.79,0.27c-0.25,0.18-0.37,0.41-0.37,0.71v2.72h-1.55v-2.72
	c0-0.27-0.09-0.48-0.28-0.64c-0.19-0.16-0.39-0.24-0.6-0.24h-0.92c-0.56,0-1.16-0.21-1.78-0.61l0.64-1.26
	c0.61,0.41,1.08,0.62,1.41,0.62h0.66c0.73,0,1.3,0.36,1.71,1.1c0.5-0.79,1.11-1.19,1.85-1.19c0.76,0,1.41,0.2,1.94,0.61
	c0.53,0.41,0.8,1.03,0.8,1.89V36.14z M288.16,35.85c0.62,0,1.19-0.27,1.7-0.81c0.51-0.54,0.76-1.45,0.76-2.72
	c0-1.23-0.25-2.11-0.75-2.65c-0.5-0.54-1.07-0.81-1.71-0.81c-0.64,0-1.23,0.27-1.75,0.81c-0.53,0.54-0.79,1.43-0.79,2.65
	c0,1.28,0.27,2.18,0.8,2.72S287.54,35.85,288.16,35.85z M291.3,23.22v1.34h-4.07c-0.63,0-1.06,0.11-1.29,0.33
	c-0.22,0.22-0.33,0.61-0.33,1.18v2.74c0.83-0.85,1.68-1.27,2.55-1.27c0.86,0,1.61,0.19,2.22,0.58c0.61,0.38,1.08,0.93,1.39,1.63
	c0.31,0.7,0.47,1.55,0.47,2.54c0,1.05-0.17,1.94-0.52,2.66c-0.35,0.72-0.85,1.27-1.51,1.66c-0.66,0.38-1.34,0.57-2.05,0.57
	c-0.72,0-1.41-0.19-2.07-0.57c-0.66-0.39-1.16-0.94-1.51-1.66c-0.34-0.72-0.52-1.6-0.52-2.66v-6.22c0-1.01,0.28-1.73,0.85-2.18
	c0.56-0.45,1.46-0.67,2.7-0.67H291.3z M281.76,30.75c0,1.06-0.66,1.98-1.98,2.75c1.44,0.92,2.16,1.93,2.16,3.02v1.33
	c0,0.37-0.15,0.85-0.45,1.44c-0.3,0.59-0.74,1.06-1.34,1.41c-0.6,0.35-1.31,0.53-2.14,0.53c-0.96-0.01-1.76-0.18-2.41-0.54
	c-0.65-0.36-1.12-0.84-1.42-1.45c-0.3-0.61-0.45-1.32-0.45-2.12c0-0.73,0.27-1.48,0.79-2.25l1.46,0.78
	c-0.41,0.43-0.62,1.09-0.62,1.96c0,0.64,0.26,1.19,0.77,1.63c0.51,0.44,1.14,0.66,1.88,0.66c0.62,0,1.15-0.21,1.61-0.63
	c0.45-0.42,0.68-0.93,0.68-1.53v-1.14c0-0.73-0.2-1.32-0.59-1.77c-0.39-0.45-0.79-0.67-1.18-0.67h-1.01v-1.32h1.01
	c0.37,0,0.73-0.21,1.07-0.62c0.35-0.42,0.52-0.91,0.52-1.48c0-0.64-0.2-1.16-0.6-1.56c-0.4-0.41-0.95-0.61-1.64-0.61
	c-0.62,0-1.11,0.19-1.49,0.57c-0.38,0.38-0.56,0.82-0.56,1.3c0,0.47,0.09,0.86,0.26,1.17l-1.38,0.58c-0.32-0.52-0.47-1.11-0.47-1.77
	c0-0.88,0.36-1.61,1.09-2.21c0.73-0.59,1.59-0.89,2.57-0.89c1.2,0,2.14,0.34,2.83,1C281.42,28.99,281.76,29.8,281.76,30.75z
	 M264.72,30.85c0-1.48-0.53-2.22-1.59-2.22c-0.65,0-1.22,0.29-1.71,0.87c-0.5,0.58-0.74,1.47-0.74,2.67c0,1.68,1.05,3.28,3.17,4.8
	h-2.2c-1.74-1.64-2.61-3.23-2.61-4.79c0-0.9,0.16-1.73,0.47-2.48c0.32-0.75,0.78-1.34,1.39-1.75c0.61-0.41,1.33-0.62,2.14-0.62
	c1,0,1.85,0.5,2.55,1.53c0.61-1.02,1.46-1.53,2.55-1.53c0.81,0,1.52,0.21,2.14,0.62c0.61,0.42,1.08,1,1.39,1.75
	c0.31,0.75,0.47,1.58,0.47,2.48c0,1.56-0.87,3.16-2.61,4.79h-2.11c2.05-1.53,3.09-3.12,3.09-4.8c0-1.2-0.25-2.09-0.74-2.67
	c-0.5-0.58-1.07-0.87-1.72-0.87c-1.13,0-1.7,0.74-1.7,2.22v2.47h-1.63V30.85z M249.85,30.85c0-1.5-0.53-2.25-1.59-2.25
	c-0.65,0-1.22,0.3-1.72,0.89c-0.49,0.59-0.74,1.48-0.74,2.69c0,1.68,1.09,3.28,3.26,4.8h-2.28c-1.74-1.64-2.61-3.23-2.61-4.79
	c0-2.65,0.84-4.81,2.52-6.47c1.68-1.66,3.82-2.5,6.39-2.5v1.32c-0.78,0-1.83,0.18-3.14,0.55c-1.31,0.37-2.49,1.34-3.52,2.9
	c0.68-0.44,1.27-0.66,1.76-0.66c0.98,0,1.83,0.57,2.55,1.71c0.6-1.14,1.45-1.71,2.55-1.71c0.81,0,1.52,0.21,2.14,0.62
	c0.62,0.42,1.08,1,1.39,1.75c0.31,0.75,0.47,1.58,0.47,2.48c0,1.56-0.87,3.16-2.61,4.79h-2.2c2.12-1.53,3.18-3.12,3.18-4.8
	c0-1.2-0.24-2.09-0.74-2.69c-0.5-0.59-1.07-0.89-1.71-0.89c-1.13,0-1.7,0.75-1.7,2.25v2.47h-1.63V30.85z M242.31,36.18
	c0,1.44-0.14,2.46-0.45,3.07c-0.3,0.61-0.77,1.1-1.42,1.45c-0.65,0.36-1.36,0.54-2.12,0.54c-0.78,0-1.5-0.18-2.14-0.54
	c-0.65-0.35-1.12-0.84-1.42-1.45c-0.3-0.61-0.45-1.32-0.45-2.11c-0.01-0.86,0.26-1.66,0.79-2.43l1.35,0.72
	c-0.34,0.59-0.5,1.32-0.5,2.2c0,0.65,0.25,1.19,0.76,1.63c0.51,0.44,1.05,0.66,1.62,0.66c0.55,0,1.05-0.15,1.48-0.45
	c0.43-0.3,0.7-0.66,0.81-1.09c0.11-0.43,0.16-1.16,0.15-2.2v-5.64c0-0.59-0.25-1.06-0.75-1.43c-0.5-0.36-1-0.55-1.5-0.55
	c-0.62,0-1.14,0.2-1.53,0.61c-0.39,0.41-0.59,0.86-0.59,1.35c0,0.61,0.16,1.11,0.47,1.51l-1.39,0.72c-0.45-0.75-0.68-1.48-0.68-2.18
	c0-0.9,0.37-1.67,1.11-2.3c0.74-0.64,1.62-0.96,2.65-0.96c1.09,0,1.99,0.33,2.69,0.99c0.7,0.66,1.05,1.41,1.06,2.27V36.18z
	 M224.68,26.88c0,1.31,0.38,2.24,1.12,2.8c0.75,0.56,1.12,1.39,1.12,2.5c0,0.97-0.17,1.84-0.52,2.61c-0.35,0.77-0.85,1.36-1.51,1.78
	c-0.66,0.41-1.35,0.61-2.07,0.61c-0.71,0-1.4-0.21-2.06-0.61c-0.66-0.41-1.16-1-1.51-1.78c-0.35-0.77-0.52-1.64-0.52-2.61v-8.93
	h1.55v8.93c0,1.26,0.27,2.19,0.8,2.79c0.54,0.61,1.11,0.9,1.74,0.9c0.62,0,1.19-0.3,1.7-0.9c0.5-0.6,0.76-1.53,0.76-2.79
	c0-0.84-0.37-1.59-1.11-2.23c-0.74-0.65-1.11-1.66-1.12-3.06H224.68z M209.29,30.85c0-1.48-0.53-2.22-1.59-2.22
	c-0.65,0-1.22,0.29-1.72,0.87c-0.49,0.58-0.74,1.47-0.74,2.67c0,1.68,1.06,3.28,3.17,4.8h-2.2c-1.74-1.64-2.61-3.23-2.61-4.79
	c0-0.9,0.16-1.73,0.47-2.48c0.31-0.75,0.78-1.34,1.39-1.75c0.62-0.41,1.33-0.62,2.14-0.62c1,0,1.85,0.5,2.55,1.53
	c0.6-1.02,1.45-1.53,2.55-1.53c0.81,0,1.52,0.21,2.14,0.62c0.62,0.42,1.08,1,1.39,1.75c0.31,0.75,0.47,1.58,0.47,2.48
	c0,1.56-0.87,3.16-2.61,4.79h-2.11c2.06-1.53,3.09-3.12,3.09-4.8c0-1.2-0.24-2.09-0.74-2.67c-0.5-0.58-1.07-0.87-1.71-0.87
	c-1.13,0-1.7,0.74-1.7,2.22v2.47h-1.63V30.85z M185.49,38.04c0.7-0.13,1.44-0.21,2.22-0.23c-2.22-1.79-3.33-3.79-3.33-5.99
	c0-0.78,0.16-1.52,0.47-2.21c0.31-0.7,0.78-1.25,1.39-1.67c0.62-0.41,1.3-0.62,2.05-0.62c1.06,0,1.88,0.45,2.46,1.35
	c0.58-0.96,1.34-1.44,2.3-1.44c1.02,0,1.82,0.48,2.4,1.44c0.49-0.9,1.31-1.35,2.46-1.35c0.75,0,1.43,0.21,2.05,0.62
	c0.62,0.42,1.08,0.96,1.39,1.62c0.32,0.67,0.47,1.42,0.47,2.26c0,1.32-0.66,2.72-1.99,4.2h-2.38c1.82-1.37,2.73-2.77,2.73-4.21
	c0-1.14-0.25-1.97-0.74-2.48s-1-0.76-1.54-0.76c-1.13,0-1.7,0.76-1.7,2.27v2.47h-1.63v-2.47c0-1.57-0.51-2.36-1.54-2.36
	c-1.02,0-1.54,0.79-1.54,2.36v2.47h-1.63v-2.47c0-1.51-0.53-2.27-1.59-2.27c-0.53,0-1.04,0.27-1.54,0.81
	c-0.49,0.54-0.74,1.35-0.74,2.43c0.01,2.14,1.38,4.04,4.1,5.71c2.27,0.11,4.1,0.54,5.48,1.29c1.38,0.75,2.14,1.53,2.26,2.34h-2.12
	c-0.05-0.63-0.6-1.16-1.64-1.58c-1.04-0.42-2.21-0.63-3.51-0.63c-1.66,0-3.36,0.2-5.11,0.6V38.04z M182.53,36.18
	c0,1.44-0.15,2.46-0.45,3.07c-0.3,0.61-0.77,1.1-1.42,1.45c-0.65,0.36-1.36,0.54-2.12,0.54c-0.79,0-1.5-0.18-2.14-0.54
	c-0.65-0.35-1.12-0.84-1.42-1.45c-0.3-0.61-0.45-1.32-0.45-2.11c0-0.86,0.26-1.66,0.79-2.43l1.35,0.72
	c-0.34,0.59-0.51,1.32-0.51,2.2c0,0.65,0.25,1.19,0.76,1.63c0.51,0.44,1.05,0.66,1.62,0.66c0.55,0,1.05-0.15,1.48-0.45
	c0.43-0.3,0.7-0.66,0.81-1.09c0.11-0.43,0.16-1.16,0.15-2.2v-5.64c0-0.59-0.25-1.06-0.75-1.43c-0.5-0.36-1-0.55-1.5-0.55
	c-0.62,0-1.14,0.2-1.53,0.61c-0.39,0.41-0.59,0.86-0.59,1.35c0,0.61,0.16,1.11,0.47,1.51l-1.38,0.72c-0.46-0.75-0.69-1.48-0.69-2.18
	c0-0.9,0.37-1.67,1.11-2.3c0.74-0.64,1.62-0.96,2.65-0.96c1.09,0,1.99,0.33,2.69,0.99c0.7,0.66,1.05,1.41,1.06,2.27V36.18z
	 M172.65,30.75c0,1.06-0.66,1.98-1.98,2.75c1.43,0.92,2.15,1.93,2.15,3.02v1.33c0,0.37-0.14,0.85-0.44,1.44
	c-0.3,0.59-0.74,1.06-1.34,1.41c-0.6,0.35-1.31,0.53-2.14,0.53c-0.96-0.01-1.76-0.18-2.41-0.54c-0.64-0.36-1.12-0.84-1.42-1.45
	c-0.3-0.61-0.45-1.32-0.45-2.12c0-0.73,0.27-1.48,0.79-2.25l1.46,0.78c-0.41,0.43-0.61,1.09-0.61,1.96c0,0.64,0.25,1.19,0.76,1.63
	c0.51,0.44,1.14,0.66,1.88,0.66c0.62,0,1.15-0.21,1.6-0.63c0.46-0.42,0.68-0.93,0.68-1.53v-1.14c0-0.73-0.2-1.32-0.59-1.77
	c-0.4-0.45-0.79-0.67-1.18-0.67h-1.01v-1.32h1.01c0.37,0,0.73-0.21,1.08-0.62c0.35-0.42,0.52-0.91,0.52-1.48
	c0-0.64-0.2-1.16-0.6-1.56c-0.4-0.41-0.95-0.61-1.63-0.61c-0.62,0-1.11,0.19-1.49,0.57c-0.38,0.38-0.56,0.82-0.56,1.3
	c0,0.47,0.08,0.86,0.26,1.17l-1.39,0.58c-0.31-0.52-0.47-1.11-0.47-1.77c0-0.88,0.37-1.61,1.1-2.21c0.73-0.59,1.59-0.89,2.57-0.89
	c1.2,0,2.14,0.34,2.83,1C172.31,28.99,172.65,29.8,172.65,30.75z M153.92,35.86c0.62,0,1.19-0.3,1.7-0.9
	c0.5-0.6,0.76-1.53,0.76-2.79c0-1.2-0.25-2.1-0.74-2.7c-0.5-0.6-1.07-0.9-1.71-0.9c-0.65,0-1.22,0.3-1.72,0.9
	c-0.49,0.6-0.74,1.5-0.74,2.7c0,1.26,0.25,2.19,0.76,2.79C152.73,35.56,153.3,35.86,153.92,35.86z M158.84,36.96
	c1.71-1.64,2.56-3.33,2.56-5.06c0-1.02-0.24-1.83-0.74-2.43c-0.49-0.6-1.07-0.9-1.72-0.9c-0.65,0-1.18,0.24-1.59,0.74
	c0.44,0.89,0.66,1.85,0.66,2.86c0,0.97-0.18,1.84-0.52,2.61c-0.34,0.77-0.85,1.36-1.51,1.78c-0.66,0.41-1.35,0.61-2.06,0.61
	c-0.71,0-1.4-0.21-2.06-0.61c-0.66-0.41-1.17-1-1.52-1.78c-0.35-0.77-0.52-1.64-0.52-2.61c0-0.9,0.16-1.73,0.47-2.48
	c0.32-0.75,0.78-1.34,1.39-1.75c0.62-0.41,1.36-0.62,2.23-0.62c1,0,1.84,0.28,2.5,0.84c0.69-0.55,1.53-0.84,2.52-0.84
	c0.87,0,1.61,0.21,2.23,0.62c0.62,0.42,1.08,1,1.39,1.75c0.32,0.75,0.47,1.5,0.47,2.21c0,1.79-0.68,3.48-2.04,5.05H158.84z
	 M140.64,30.85c0-1.5-0.53-2.25-1.59-2.25c-0.65,0-1.22,0.3-1.72,0.89c-0.5,0.59-0.74,1.48-0.74,2.69c0,1.68,1.08,3.28,3.25,4.8
	h-2.28c-1.74-1.64-2.61-3.23-2.61-4.79c-0.01-2.65,0.83-4.81,2.52-6.47c1.69-1.66,3.82-2.5,6.39-2.5v1.32
	c-0.78,0-1.82,0.18-3.14,0.55c-1.31,0.37-2.48,1.34-3.52,2.9c0.68-0.44,1.27-0.66,1.76-0.66c0.98,0,1.83,0.57,2.55,1.71
	c0.61-1.14,1.46-1.71,2.55-1.71c0.81,0,1.52,0.21,2.14,0.62c0.61,0.42,1.08,1,1.39,1.75c0.31,0.75,0.47,1.58,0.47,2.48
	c0,1.56-0.87,3.16-2.61,4.79h-2.2c2.12-1.53,3.18-3.12,3.18-4.8c0-1.2-0.25-2.09-0.74-2.69c-0.5-0.59-1.07-0.89-1.72-0.89
	c-1.13,0-1.7,0.75-1.7,2.25v2.47h-1.63V30.85z M133.18,33.11c0,1.01-0.38,1.93-1.1,2.79c-0.73,0.86-1.74,1.28-3.02,1.28
	c-1.16,0-2.13-0.43-2.91-1.28c-0.77-0.86-1.16-1.87-1.15-3.05c0-0.88,0.3-1.78,0.89-2.7l1.42,0.66c-0.44,0.87-0.66,1.55-0.66,2.04
	c0.01,1.08,0.27,1.85,0.77,2.32c0.51,0.46,1.06,0.7,1.66,0.71c0.58-0.01,1.11-0.2,1.58-0.57c0.47-0.38,0.77-1.11,0.88-2.19
	c0.01-1.46-0.66-2.63-2-3.52c-1.34-0.89-2.02-1.97-2.02-3.21h1.56c0.01,0.99,0.7,1.95,2.06,2.87
	C132.5,30.17,133.18,31.45,133.18,33.11z M121.4,30.52c0-0.58-0.27-1.06-0.83-1.42c-0.55-0.36-1.11-0.54-1.66-0.54
	c-0.69,0-1.21,0.18-1.55,0.55c-0.34,0.37-0.5,0.81-0.5,1.32c0,0.43,0.12,0.89,0.38,1.38l-1.41,0.75c-0.38-0.74-0.57-1.43-0.57-2.09
	c0-0.97,0.35-1.74,1.07-2.31c0.71-0.57,1.58-0.85,2.6-0.85c0.75,0,1.58,0.26,2.47,0.77v-4.87h1.55v12.93c0,1.47-0.15,2.5-0.45,3.12
	c-0.3,0.61-0.77,1.1-1.42,1.45c-0.64,0.36-1.38,0.54-2.21,0.54c-0.84,0-1.58-0.18-2.23-0.54c-0.65-0.35-1.12-0.84-1.42-1.45
	c-0.3-0.61-0.45-1.32-0.45-2.11c0-0.73,0.25-1.54,0.75-2.43l1.53,0.63c-0.43,0.65-0.64,1.41-0.64,2.29c0,0.65,0.25,1.2,0.76,1.65
	c0.51,0.45,1.08,0.68,1.7,0.68c0.62,0,1.14-0.16,1.57-0.47c0.43-0.31,0.7-0.68,0.82-1.11c0.11-0.43,0.16-1.16,0.16-2.2L121.4,30.52z
	 M112.99,33.11c-0.01,1.01-0.38,1.93-1.11,2.79c-0.74,0.86-1.74,1.28-3.02,1.28c-1.17,0-2.14-0.43-2.91-1.28
	c-0.77-0.86-1.16-1.87-1.15-3.05c0-0.88,0.3-1.78,0.89-2.7l1.42,0.66c-0.44,0.87-0.66,1.55-0.66,2.04c0,1.08,0.26,1.85,0.77,2.32
	c0.51,0.46,1.06,0.7,1.67,0.71c0.58-0.01,1.11-0.2,1.58-0.57c0.47-0.38,0.76-1.11,0.88-2.19c0.01-1.46-0.66-2.63-2-3.52
	c-1.34-0.89-2.02-1.97-2.02-3.21h1.56c0,0.99,0.69,1.95,2.05,2.87C112.3,30.17,112.99,31.45,112.99,33.11z M100.76,26.88
	c0,1.31,0.38,2.24,1.13,2.8c0.75,0.56,1.12,1.39,1.12,2.5c0,0.97-0.17,1.84-0.52,2.61c-0.35,0.77-0.85,1.36-1.51,1.78
	c-0.66,0.41-1.35,0.61-2.06,0.61c-0.71,0-1.4-0.21-2.07-0.61c-0.66-0.41-1.16-1-1.51-1.78c-0.34-0.77-0.52-1.64-0.52-2.61v-8.93
	h1.54v8.93c0,1.26,0.27,2.19,0.81,2.79c0.53,0.61,1.11,0.9,1.74,0.9c0.62,0,1.19-0.3,1.7-0.9c0.5-0.6,0.76-1.53,0.76-2.79
	c0-0.84-0.37-1.59-1.11-2.23c-0.74-0.65-1.11-1.66-1.12-3.06H100.76z"></path><path d="M383.79,36.96c1.17-1.88,1.76-3.56,1.76-5.06c0-1.02-0.25-1.83-0.74-2.42c-0.5-0.59-1.07-0.88-1.71-0.88
	c-0.65,0-1.22,0.29-1.72,0.88c-0.49,0.59-0.74,1.39-0.74,2.42c0,1.5,0.61,3.18,1.84,5.06h-1.84c-1.09-2.17-1.63-3.85-1.63-5.05
	c0-0.72,0.16-1.46,0.47-2.21c0.31-0.75,0.78-1.34,1.39-1.75c0.62-0.42,1.36-0.63,2.23-0.63s1.61,0.21,2.23,0.63
	c0.61,0.42,1.08,1,1.39,1.75c0.31,0.75,0.47,1.5,0.47,2.21c0,1.2-0.55,2.88-1.63,5.05H383.79z"></path><path d="M319.84,52.45v5.67h-1.63v-1.51c-0.37,0.61-0.84,1.05-1.39,1.34c-0.55,0.29-1.23,0.43-2.04,0.43
	c-1.02,0-1.83-0.29-2.43-0.86c-0.6-0.57-0.9-1.34-0.9-2.29c0-1.12,0.38-1.96,1.12-2.53c0.75-0.57,1.87-0.85,3.35-0.85h2.29v-0.16
	c0-0.75-0.25-1.34-0.74-1.75c-0.49-0.41-1.19-0.62-2.08-0.62c-0.57,0-1.12,0.07-1.66,0.2c-0.54,0.14-1.05,0.34-1.55,0.61v-1.51
	c0.6-0.23,1.18-0.4,1.74-0.52c0.56-0.11,1.11-0.17,1.64-0.17c1.43,0,2.51,0.37,3.22,1.12C319.48,49.8,319.84,50.93,319.84,52.45z
	 M316.58,53.12c-1.32,0-2.23,0.15-2.74,0.45c-0.51,0.3-0.77,0.82-0.77,1.55c0,0.58,0.19,1.04,0.57,1.38
	c0.38,0.34,0.9,0.51,1.56,0.51c0.9,0,1.63-0.32,2.18-0.97c0.54-0.64,0.82-1.5,0.82-2.56v-0.36H316.58z M307.01,44.31h1.63v2.07
	h-1.63V44.31z M307.01,48.18h1.63v9.94h-1.63V48.18z M303.65,56.88c0,1.69-0.38,2.95-1.13,3.77c-0.75,0.83-1.9,1.24-3.45,1.24
	c-0.57,0-1.11-0.04-1.62-0.12c-0.51-0.09-1-0.22-1.48-0.4v-1.59c0.48,0.26,0.95,0.45,1.42,0.57c0.47,0.12,0.95,0.19,1.43,0.19
	c1.07,0,1.87-0.28,2.4-0.84c0.54-0.56,0.8-1.4,0.8-2.53v-0.8c-0.34,0.59-0.77,1.02-1.3,1.31c-0.53,0.29-1.16,0.44-1.89,0.44
	c-1.21,0-2.2-0.47-2.95-1.39c-0.75-0.93-1.12-2.16-1.12-3.69c0-1.54,0.37-2.77,1.12-3.7c0.74-0.93,1.73-1.39,2.95-1.39
	c0.73,0,1.36,0.14,1.89,0.43c0.53,0.29,0.96,0.73,1.3,1.32v-1.51h1.63V56.88z M302.02,53.03c0-1.18-0.25-2.1-0.73-2.75
	c-0.49-0.65-1.17-0.97-2.05-0.97s-1.56,0.32-2.05,0.97c-0.48,0.65-0.73,1.57-0.73,2.75c0,1.18,0.24,2.09,0.73,2.74
	c0.49,0.65,1.17,0.98,2.05,0.98s1.56-0.33,2.05-0.98C301.77,55.12,302.02,54.21,302.02,53.03z M293.76,49.7
	c-0.18-0.11-0.39-0.18-0.6-0.23c-0.21-0.05-0.45-0.08-0.71-0.08c-0.92,0-1.63,0.3-2.12,0.9c-0.5,0.6-0.74,1.46-0.74,2.59v5.24h-1.64
	v-9.94h1.64v1.55c0.34-0.61,0.79-1.05,1.34-1.35c0.55-0.29,1.22-0.44,2-0.44c0.11,0,0.24,0.01,0.37,0.02
	c0.14,0.02,0.29,0.04,0.46,0.07L293.76,49.7z M280.74,47.94c1.42,0,2.54,0.46,3.34,1.38c0.81,0.92,1.22,2.2,1.22,3.83
	c0,1.63-0.41,2.91-1.22,3.83c-0.81,0.93-1.93,1.39-3.34,1.39c-1.43,0-2.54-0.47-3.35-1.39c-0.81-0.93-1.21-2.2-1.21-3.83
	c0-1.63,0.4-2.91,1.21-3.83C278.19,48.4,279.31,47.94,280.74,47.94z M280.74,49.32c-0.88,0-1.57,0.34-2.08,1.03
	c-0.51,0.68-0.77,1.62-0.77,2.8c0,1.19,0.25,2.13,0.76,2.81c0.51,0.68,1.2,1.02,2.08,1.02c0.87,0,1.56-0.34,2.07-1.03
	c0.51-0.68,0.76-1.62,0.76-2.8c0-1.17-0.25-2.1-0.76-2.8C282.3,49.67,281.6,49.32,280.74,49.32z M272.57,52.26
	c-0.01-0.9-0.26-1.61-0.75-2.14c-0.49-0.53-1.13-0.8-1.94-0.8c-0.91,0-1.64,0.26-2.19,0.77c-0.55,0.51-0.86,1.24-0.95,2.17
	L272.57,52.26z M274.21,52.74v0.8h-7.51c0.07,1.12,0.41,1.98,1.02,2.57c0.61,0.59,1.45,0.88,2.53,0.88c0.63,0,1.24-0.07,1.82-0.23
	c0.59-0.15,1.18-0.38,1.75-0.69v1.54c-0.59,0.25-1.18,0.44-1.8,0.57c-0.62,0.12-1.24,0.2-1.87,0.2c-1.59,0-2.84-0.46-3.77-1.39
	c-0.93-0.92-1.39-2.17-1.39-3.74c0-1.63,0.44-2.92,1.32-3.88c0.88-0.96,2.06-1.43,3.55-1.43c1.34,0,2.39,0.43,3.17,1.29
	C273.82,50.09,274.21,51.26,274.21,52.74z M260.72,56.23v-3.56h-2.93V51.2h4.7v5.69c-0.69,0.49-1.46,0.86-2.29,1.11
	c-0.83,0.25-1.72,0.38-2.67,0.38c-2.07,0-3.69-0.61-4.86-1.82c-1.17-1.21-1.75-2.89-1.75-5.05c0-2.16,0.59-3.86,1.75-5.06
	c1.17-1.21,2.79-1.81,4.86-1.81c0.86,0,1.68,0.11,2.46,0.32c0.77,0.21,1.49,0.53,2.15,0.94v1.91c-0.66-0.57-1.37-0.98-2.11-1.27
	c-0.75-0.28-1.53-0.43-2.36-0.43c-1.62,0-2.84,0.46-3.65,1.36c-0.82,0.91-1.22,2.25-1.22,4.05c0,1.79,0.41,3.13,1.22,4.04
	c0.81,0.91,2.03,1.36,3.65,1.36c0.63,0,1.2-0.05,1.7-0.17C259.89,56.63,260.33,56.46,260.72,56.23z M244.48,44.31v1.36h-1.56
	c-0.58,0-0.99,0.12-1.22,0.36c-0.23,0.24-0.34,0.66-0.34,1.28v0.88h2.69v1.27h-2.69v8.67h-1.64v-8.67h-1.56v-1.27h1.56v-0.69
	c0-1.11,0.26-1.91,0.77-2.42c0.52-0.51,1.33-0.76,2.45-0.76H244.48z M232.18,47.94c1.42,0,2.54,0.46,3.34,1.38
	c0.81,0.92,1.22,2.2,1.22,3.83c0,1.63-0.41,2.91-1.22,3.83c-0.81,0.93-1.92,1.39-3.34,1.39c-1.43,0-2.54-0.47-3.35-1.39
	c-0.81-0.93-1.21-2.2-1.21-3.83c0-1.63,0.4-2.91,1.21-3.83S230.75,47.94,232.18,47.94z M232.18,49.32c-0.88,0-1.57,0.34-2.08,1.03
	c-0.51,0.68-0.76,1.62-0.76,2.8c0,1.19,0.25,2.13,0.76,2.81c0.5,0.68,1.2,1.02,2.08,1.02c0.87,0,1.56-0.34,2.07-1.03
	c0.51-0.68,0.76-1.62,0.76-2.8c0-1.17-0.25-2.1-0.76-2.8C233.74,49.67,233.05,49.32,232.18,49.32z M211.96,44.31h1.64v8.16
	l4.87-4.29h2.09l-5.27,4.65l5.49,5.29h-2.13l-5.05-4.86v4.86h-1.64V44.31z M208.77,52.12v6h-1.63v-5.95c0-0.94-0.18-1.64-0.55-2.11
	c-0.37-0.47-0.91-0.7-1.65-0.7c-0.88,0-1.57,0.28-2.08,0.84c-0.51,0.56-0.77,1.33-0.77,2.3v5.62h-1.64v-9.94h1.64v1.55
	c0.39-0.6,0.85-1.05,1.38-1.34c0.53-0.3,1.14-0.44,1.83-0.44c1.14,0,2.01,0.35,2.59,1.06C208.47,49.7,208.77,50.74,208.77,52.12z
	 M197.14,52.45v5.67h-1.63v-1.51c-0.38,0.61-0.84,1.05-1.39,1.34c-0.56,0.29-1.23,0.43-2.04,0.43c-1.02,0-1.82-0.29-2.43-0.86
	c-0.6-0.57-0.9-1.34-0.9-2.29c0-1.12,0.38-1.96,1.12-2.53c0.75-0.57,1.87-0.85,3.35-0.85h2.29v-0.16c0-0.75-0.25-1.34-0.74-1.75
	c-0.49-0.41-1.19-0.62-2.08-0.62c-0.57,0-1.12,0.07-1.66,0.2c-0.54,0.14-1.05,0.34-1.55,0.61v-1.51c0.6-0.23,1.18-0.4,1.74-0.52
	c0.56-0.11,1.11-0.17,1.64-0.17c1.43,0,2.51,0.37,3.22,1.12C196.79,49.8,197.14,50.93,197.14,52.45z M193.89,53.12
	c-1.32,0-2.23,0.15-2.74,0.45c-0.51,0.3-0.77,0.82-0.77,1.55c0,0.58,0.19,1.04,0.57,1.38c0.38,0.34,0.9,0.51,1.56,0.51
	c0.9,0,1.63-0.32,2.18-0.97c0.54-0.64,0.82-1.5,0.82-2.56v-0.36H193.89z M176.97,44.87h4.58c1.36,0,2.41,0.28,3.16,0.85
	c0.74,0.57,1.11,1.38,1.11,2.42c0,0.81-0.19,1.45-0.57,1.94c-0.38,0.48-0.93,0.78-1.67,0.89c0.89,0.19,1.57,0.58,2.06,1.18
	c0.49,0.6,0.73,1.35,0.73,2.25c0,1.18-0.4,2.1-1.21,2.74c-0.8,0.64-1.95,0.97-3.43,0.97h-4.76V44.87z M178.76,46.34v3.99h2.66
	c0.88,0,1.52-0.16,1.95-0.49s0.64-0.83,0.64-1.5c0-0.67-0.21-1.17-0.64-1.5c-0.43-0.33-1.08-0.5-1.95-0.5H178.76z M178.76,51.79
	v4.86h2.88c0.96,0,1.68-0.2,2.14-0.6c0.47-0.4,0.7-1.01,0.7-1.83c0-0.83-0.23-1.44-0.7-1.83c-0.46-0.39-1.18-0.59-2.14-0.59H178.76z
	 M166.07,44.31h1.64v13.81h-1.64V44.31z M162.71,52.45v5.67h-1.63v-1.51c-0.37,0.61-0.84,1.05-1.39,1.34
	c-0.56,0.29-1.24,0.43-2.04,0.43c-1.02,0-1.83-0.29-2.43-0.86c-0.6-0.57-0.9-1.34-0.9-2.29c0-1.12,0.38-1.96,1.12-2.53
	c0.75-0.57,1.86-0.85,3.35-0.85h2.29v-0.16c0-0.75-0.25-1.34-0.74-1.75c-0.49-0.41-1.19-0.62-2.08-0.62c-0.57,0-1.12,0.07-1.66,0.2
	c-0.54,0.14-1.05,0.34-1.55,0.61v-1.51c0.6-0.23,1.18-0.4,1.74-0.52c0.56-0.11,1.11-0.17,1.64-0.17c1.44,0,2.51,0.37,3.22,1.12
	C162.36,49.8,162.71,50.93,162.71,52.45z M159.46,53.12c-1.32,0-2.24,0.15-2.75,0.45c-0.51,0.3-0.76,0.82-0.76,1.55
	c0,0.58,0.19,1.04,0.57,1.38c0.38,0.34,0.9,0.51,1.56,0.51c0.9,0,1.63-0.32,2.18-0.97c0.55-0.64,0.82-1.5,0.82-2.56v-0.36H159.46z
	 M151.68,52.12v6h-1.63v-5.95c0-0.94-0.18-1.64-0.55-2.11c-0.37-0.47-0.91-0.7-1.65-0.7c-0.88,0-1.58,0.28-2.09,0.84
	c-0.51,0.56-0.76,1.33-0.76,2.3v5.62h-1.65v-9.94H145v1.55c0.39-0.6,0.85-1.05,1.38-1.34c0.53-0.3,1.14-0.44,1.84-0.44
	c1.14,0,2.01,0.35,2.59,1.06C151.39,49.7,151.68,50.74,151.68,52.12z M136.15,47.94c1.42,0,2.53,0.46,3.34,1.38s1.21,2.2,1.21,3.83
	c0,1.63-0.41,2.91-1.21,3.83c-0.81,0.93-1.93,1.39-3.34,1.39c-1.43,0-2.54-0.47-3.35-1.39c-0.81-0.93-1.21-2.2-1.21-3.83
	c0-1.63,0.4-2.91,1.21-3.83C133.61,48.4,134.72,47.94,136.15,47.94z M136.15,49.32c-0.88,0-1.57,0.34-2.08,1.03
	c-0.51,0.68-0.77,1.62-0.77,2.8c0,1.19,0.25,2.13,0.76,2.81c0.5,0.68,1.2,1.02,2.08,1.02c0.87,0,1.56-0.34,2.07-1.03
	c0.51-0.68,0.76-1.62,0.76-2.8c0-1.17-0.25-2.1-0.76-2.8C137.71,49.67,137.02,49.32,136.15,49.32z M127.24,44.31h1.64v2.07h-1.64
	V44.31z M127.24,48.18h1.64v9.94h-1.64V48.18z M121.74,45.36v2.82h3.36v1.27h-3.36v5.39c0,0.81,0.11,1.33,0.33,1.56
	c0.22,0.23,0.67,0.35,1.35,0.35h1.68v1.37h-1.68c-1.26,0-2.13-0.24-2.61-0.71c-0.48-0.47-0.71-1.33-0.71-2.57v-5.39h-1.2v-1.27h1.2
	v-2.82H121.74z M116.76,52.45v5.67h-1.63v-1.51c-0.37,0.61-0.84,1.05-1.4,1.34c-0.55,0.29-1.23,0.43-2.04,0.43
	c-1.02,0-1.83-0.29-2.43-0.86c-0.61-0.57-0.9-1.34-0.9-2.29c0-1.12,0.38-1.96,1.12-2.53c0.75-0.57,1.87-0.85,3.35-0.85h2.29v-0.16
	c0-0.75-0.25-1.34-0.74-1.75c-0.49-0.41-1.19-0.62-2.08-0.62c-0.57,0-1.12,0.07-1.66,0.2c-0.54,0.14-1.05,0.34-1.55,0.61v-1.51
	c0.6-0.23,1.18-0.4,1.74-0.52c0.56-0.11,1.1-0.17,1.64-0.17c1.43,0,2.51,0.37,3.22,1.12C116.4,49.8,116.76,50.93,116.76,52.45z
	 M113.5,53.12c-1.32,0-2.24,0.15-2.75,0.45c-0.51,0.3-0.76,0.82-0.76,1.55c0,0.58,0.19,1.04,0.57,1.38c0.38,0.34,0.9,0.51,1.56,0.51
	c0.91,0,1.63-0.32,2.18-0.97c0.55-0.64,0.82-1.5,0.82-2.56v-0.36H113.5z M95.46,44.87h2.41l5.88,11.08V44.87h1.74v13.25h-2.41
	L97.2,47.03v11.09h-1.74V44.87z"></path><path d="M32.19,3.97c21.29-5.7,43.18,6.94,48.88,28.22c5.7,21.29-6.93,43.18-28.22,48.88
	C31.56,86.78,9.67,74.14,3.97,52.85C-1.74,31.56,10.9,9.67,32.19,3.97z M31.52,1.45c10.91-2.93,22.48-1.4,32.26,4.25
	c9.79,5.65,16.88,14.89,19.81,25.81c2.93,10.91,1.4,22.48-4.25,32.26c-5.66,9.79-14.89,16.88-25.81,19.81
	c-10.92,2.93-22.48,1.4-32.26-4.25c-9.8-5.65-16.88-14.89-19.81-25.81c-2.92-10.92-1.4-22.48,4.25-32.26
	C11.36,11.47,20.59,4.38,31.52,1.45z"></path><path d="M41.23,37.7c2.66-0.71,5.4,0.87,6.11,3.53c0.72,2.66-0.87,5.4-3.53,6.11c-2.66,0.71-5.39-0.87-6.11-3.53
	C36.99,41.15,38.57,38.42,41.23,37.7z"></path><path d="M33.47,8.74c0.83-0.22,1.07-0.27,1.07-0.27c0.79-0.16,1.1,0.27,0.7,0.97l-2.38,4.12
	c-0.4,0.7-0.9,0.63-1.11-0.15l-0.64-2.4c-0.21-0.78,0.25-1.62,1.01-1.88C32.12,9.14,32.54,8.99,33.47,8.74z M39.65,9.13
	c0-0.8,0.66-1.49,1.46-1.52l2.52-0.01c0.8,0.03,0.99,0.52,0.42,1.08l-3.38,3.38c-0.57,0.57-1.03,0.38-1.03-0.43V9.13z M48.39,9.52
	c0.21-0.77,1.02-1.27,1.81-1.09l2.43,0.64c0.77,0.23,0.82,0.76,0.13,1.16l-4.12,2.38c-0.7,0.4-1.09,0.1-0.89-0.68L48.39,9.52z
	 M56.73,12.17c0.4-0.7,1.32-0.96,2.03-0.59l2.18,1.25c0.68,0.43,0.6,0.95-0.17,1.15l-4.6,1.23c-0.77,0.21-1.08-0.19-0.68-0.89
	L56.73,12.17z M64.1,16.88c0.57-0.57,1.52-0.59,2.11-0.05L68,18.61c0.55,0.59,0.34,1.07-0.46,1.07h-4.77c-0.8,0-1-0.46-0.43-1.03
	L64.1,16.88z M70.01,23.34c0.7-0.4,1.62-0.18,2.05,0.5l1.27,2.18c0.38,0.71,0.05,1.12-0.73,0.91l-4.6-1.23
	c-0.78-0.21-0.84-0.71-0.15-1.11L70.01,23.34z M74.03,31.11c0.78-0.21,1.62,0.24,1.88,1c0,0,0.14,0.42,0.39,1.36
	c0.22,0.84,0.27,1.07,0.27,1.07c0.16,0.79-0.27,1.1-0.97,0.7l-4.12-2.38c-0.69-0.4-0.63-0.9,0.15-1.11L74.03,31.11z M75.91,39.65
	c0.81,0,1.49,0.66,1.52,1.46l0.02,2.52c-0.03,0.8-0.52,0.99-1.09,0.43l-3.38-3.38c-0.57-0.57-0.38-1.03,0.43-1.03H75.91z
	 M75.52,48.39c0.78,0.21,1.27,1.02,1.09,1.8l-0.64,2.43c-0.24,0.77-0.76,0.82-1.16,0.13l-2.38-4.12c-0.4-0.7-0.09-1.09,0.68-0.89
	L75.52,48.39z M72.87,56.73c0.69,0.4,0.96,1.32,0.59,2.03l-1.25,2.18c-0.43,0.68-0.94,0.6-1.15-0.17l-1.23-4.6
	c-0.21-0.77,0.19-1.08,0.89-0.68L72.87,56.73z M68.16,64.1c0.57,0.57,0.59,1.52,0.05,2.11L66.43,68c-0.58,0.55-1.07,0.34-1.07-0.46
	v-4.77c0-0.8,0.46-1,1.03-0.43L68.16,64.1z M61.7,70.01c0.4,0.7,0.18,1.62-0.5,2.05l-2.18,1.27c-0.71,0.38-1.12,0.05-0.91-0.72
	l1.24-4.61c0.21-0.78,0.71-0.84,1.11-0.15L61.7,70.01z M53.93,74.03c0.21,0.78-0.25,1.62-1.01,1.88c0,0-0.42,0.14-1.35,0.39
	c-0.84,0.23-1.07,0.27-1.07,0.27c-0.79,0.17-1.1-0.27-0.7-0.96l2.38-4.12c0.4-0.7,0.9-0.63,1.11,0.15L53.93,74.03z M45.39,75.91
	c0,0.8-0.66,1.49-1.46,1.52l-2.52,0.02c-0.8-0.03-1-0.52-0.43-1.09l3.37-3.37c0.57-0.57,1.04-0.38,1.04,0.43V75.91z M36.65,75.52
	c-0.21,0.78-1.02,1.27-1.8,1.09l-2.43-0.64c-0.77-0.24-0.83-0.76-0.13-1.16l4.12-2.38c0.7-0.4,1.1-0.09,0.89,0.68L36.65,75.52z
	 M28.31,72.86c-0.4,0.7-1.31,0.96-2.02,0.59l-2.18-1.25c-0.68-0.42-0.6-0.94,0.17-1.15l4.6-1.23c0.78-0.21,1.08,0.19,0.68,0.89
	L28.31,72.86z M20.94,68.16c-0.57,0.57-1.52,0.59-2.11,0.05l-1.79-1.77c-0.55-0.59-0.34-1.07,0.46-1.07h4.77
	c0.81,0,1,0.47,0.43,1.03L20.94,68.16z M15.03,61.7c-0.69,0.4-1.62,0.18-2.05-0.5l-1.26-2.18c-0.38-0.71-0.05-1.12,0.73-0.91
	l4.61,1.23c0.78,0.21,0.84,0.71,0.14,1.11L15.03,61.7z M11.01,53.93c-0.78,0.21-1.62-0.25-1.88-1.01c0,0-0.14-0.42-0.39-1.35
	c-0.22-0.84-0.27-1.07-0.27-1.07c-0.16-0.78,0.27-1.1,0.96-0.7l4.12,2.38c0.7,0.4,0.63,0.9-0.14,1.11L11.01,53.93z M9.13,45.39
	c-0.81,0-1.49-0.66-1.52-1.46l-0.01-2.52c0.03-0.8,0.51-1,1.08-0.43l3.38,3.38c0.57,0.57,0.38,1.03-0.43,1.03H9.13z M9.52,36.65
	c-0.77-0.21-1.26-1.02-1.09-1.8l0.64-2.43c0.23-0.77,0.76-0.83,1.16-0.13l2.38,4.13c0.4,0.7,0.1,1.09-0.68,0.89L9.52,36.65z
	 M12.17,28.31c-0.7-0.4-0.96-1.31-0.59-2.02l1.25-2.18c0.43-0.68,0.94-0.61,1.15,0.17l1.23,4.6c0.21,0.78-0.19,1.08-0.89,0.68
	L12.17,28.31z M16.89,20.94c-0.57-0.57-0.59-1.52-0.05-2.11l1.77-1.79c0.59-0.55,1.07-0.34,1.07,0.47v4.77c0,0.8-0.46,1-1.04,0.43
	L16.89,20.94z M23.34,15.03c-0.4-0.7-0.18-1.62,0.5-2.05l2.17-1.27c0.71-0.38,1.12-0.05,0.91,0.73l-1.23,4.61
	c-0.21,0.78-0.71,0.84-1.11,0.14L23.34,15.03z"></path><path d="M42.52,7.99c19.07,0,34.53,15.47,34.53,34.53c0,19.07-15.47,34.53-34.53,34.53
	c-19.07,0-34.53-15.46-34.53-34.53C7.99,23.45,23.45,7.99,42.52,7.99z M42.52,6.26c20.02,0,36.27,16.24,36.27,36.27
	c0,20.02-16.24,36.27-36.27,36.27c-20.03,0-36.27-16.24-36.27-36.27C6.26,22.49,22.49,6.26,42.52,6.26z"></path><path d="M56.42,27.11c-0.27,0.71,0.07,1.04,0.77,0.73c0.7-0.31,2.3-0.56,3.57-0.55c1.26,0,3.83,3.45,4.56,5.09
	c0.73,1.64,1.32,4.01,1.31,5.27c0,1.27-2.68,3.49-3.38,3.8c-0.69,0.31-0.68,0.79,0.03,1.06c0.71,0.27,2.02,1.23,2.91,2.13
	c0.89,0.89,0.27,5.15-0.37,6.82c-0.64,1.67-1.9,3.77-2.8,4.66c-0.9,0.89-4.37,0.57-5.08,0.3c-0.71-0.27-1.04,0.07-0.73,0.77
	c0.31,0.7,0.56,2.3,0.56,3.57c0,1.27-3.46,3.83-5.09,4.56c-1.64,0.73-4.01,1.32-5.27,1.32c-1.27-0.01-3.49-2.69-3.8-3.39
	c-0.31-0.7-0.79-0.68-1.06,0.03c-0.27,0.71-1.23,2.02-2.13,2.92c-0.9,0.89-5.15,0.27-6.82-0.38c-1.67-0.64-3.77-1.9-4.66-2.8
	c-0.89-0.89-0.57-4.37-0.3-5.08c0.27-0.71-0.07-1.04-0.77-0.73c-0.69,0.31-2.3,0.56-3.56,0.55c-1.27,0-3.84-3.46-4.56-5.09
	c-0.73-1.64-1.32-4.01-1.32-5.27c0-1.27,2.69-3.49,3.38-3.8c0.69-0.31,0.68-0.79-0.03-1.06c-0.71-0.27-2.02-1.23-2.91-2.13
	c-0.89-0.89-0.26-5.15,0.38-6.82c0.64-1.67,1.9-3.77,2.8-4.66c0.9-0.89,4.37-0.57,5.08-0.29s1.04-0.07,0.73-0.77
	c-0.31-0.7-0.56-2.3-0.55-3.57c0-1.27,3.45-3.84,5.09-4.56c1.64-0.73,4.01-1.32,5.27-1.32c1.26,0,3.49,2.69,3.8,3.38
	c0.31,0.7,0.79,0.69,1.06-0.03c0.27-0.71,1.23-2.02,2.13-2.91c0.9-0.89,5.16-0.27,6.83,0.38c1.67,0.64,3.76,1.9,4.66,2.8
	C57.01,22.92,56.69,26.4,56.42,27.11z M33.88,57.35c-0.65,1.7-0.03,3.53,1.38,4.08c1.41,0.54,3.1-0.41,3.76-2.11l0.78-2.03
	c0.65-1.7,1.59-3.27,2.1-3.5c0.5-0.22,1.33-0.25,1.84-0.05c0.51,0.2,1.54,1.72,2.28,3.38l0.88,1.98c0.74,1.66,2.48,2.52,3.86,1.91
	c1.38-0.62,1.91-2.48,1.17-4.14l-0.88-1.98c-0.74-1.66-1.19-3.45-0.99-3.96c0.2-0.51,0.77-1.11,1.27-1.34c0.5-0.22,2.3,0.13,4,0.78
	l2.02,0.78c1.7,0.65,3.54,0.03,4.08-1.39c0.54-1.41-0.41-3.1-2.1-3.76l-2.03-0.78c-1.7-0.65-3.27-1.6-3.5-2.1
	c-0.22-0.5-0.25-1.33-0.05-1.84c0.2-0.51,1.72-1.54,3.38-2.28l1.98-0.88c1.66-0.74,2.52-2.48,1.91-3.86
	c-0.62-1.38-2.48-1.91-4.15-1.17l-1.98,0.88c-1.66,0.74-3.45,1.19-3.96,0.99c-0.51-0.2-1.11-0.77-1.34-1.27
	c-0.22-0.5,0.13-2.3,0.78-4l0.78-2.03c0.66-1.7,0.03-3.54-1.38-4.08c-1.41-0.54-3.1,0.4-3.76,2.11l-0.78,2.02
	c-0.65,1.7-1.6,3.28-2.1,3.5c-0.5,0.22-1.33,0.24-1.84,0.05c-0.51-0.2-1.54-1.72-2.28-3.38l-0.88-1.98
	c-0.74-1.66-2.48-2.52-3.86-1.91c-1.39,0.62-1.91,2.48-1.17,4.14l0.88,1.98c0.74,1.66,1.19,3.44,0.99,3.95
	c-0.2,0.51-0.77,1.11-1.27,1.34c-0.5,0.22-2.3-0.13-4-0.78l-2.03-0.78c-1.7-0.65-3.54-0.03-4.08,1.39c-0.54,1.41,0.4,3.11,2.11,3.76
	l2.02,0.78c1.7,0.65,3.27,1.6,3.5,2.1c0.22,0.5,0.24,1.33,0.05,1.84c-0.19,0.51-1.72,1.54-3.38,2.28l-1.98,0.88
	c-1.66,0.74-2.52,2.48-1.9,3.86c0.61,1.38,2.48,1.91,4.15,1.17l1.98-0.88c1.67-0.74,3.45-1.18,3.96-0.99
	c0.51,0.2,1.11,0.77,1.34,1.27c0.22,0.5-0.13,2.3-0.78,4L33.88,57.35z"></path></svg>